<?xml version="1.0" encoding="UTF-8" standalone="no"?>
<!DOCTYPE svg PUBLIC "-//W3C//DTD SVG 1.1//EN"
 "http://www.w3.org/Graphics/SVG/1.1/DTD/svg11.dtd">
<!-- Generated by graphviz version 2.43.0 (0)
 -->
<!-- Title: CompositeTracks Pages: 1 -->
<svg width="330pt" height="143pt"
 viewBox="0.00 0.00 329.50 143.00" xmlns="http://www.w3.org/2000/svg" xmlns:xlink="http://www.w3.org/1999/xlink">
<g id="graph0" class="graph" transform="scale(1 1) rotate(0) translate(4 139)">
<title>CompositeTracks</title>
<polygon fill="white" stroke="transparent" points="-4,4 -4,-139 325.5,-139 325.5,4 -4,4"/>
<!-- Fill -->
<g id="node1" class="node">
<title>Fill</title>
<polygon fill="none" stroke="black" points="145,-135 0,-135 0,-114 145,-114 145,-135"/>
<text text-anchor="middle" x="72.5" y="-121.4" font-family="Times,serif" font-size="12.00">Fill: Background color</text>
</g>
<!-- Over -->
<g id="node4" class="node">
<title>Over</title>
<polygon fill="none" stroke="black" points="171.5,-78 133.5,-78 133.5,-57 171.5,-57 171.5,-78"/>
<text text-anchor="middle" x="152.5" y="-64.4" font-family="Times,serif" font-size="12.00">Over</text>
</g>
<!-- Fill&#45;&gt;Over -->
<g id="edge1" class="edge">
<title>Fill&#45;&gt;Over</title>
<path fill="none" stroke="black" d="M86.43,-113.92C98.41,-105.69 115.9,-93.67 129.87,-84.06"/>
<polygon fill="black" stroke="black" points="132.2,-86.7 138.46,-78.16 128.23,-80.94 132.2,-86.7"/>
</g>
<!-- Read -->
<g id="node2" class="node">
<title>Read</title>
<polygon fill="none" stroke="black" points="303.5,-135 163.5,-135 163.5,-114 303.5,-114 303.5,-135"/>
<text text-anchor="middle" x="233.5" y="-121.4" font-family="Times,serif" font-size="12.00">Read: Color_Blue.png</text>
</g>
<!-- Read&#45;&gt;Over -->
<g id="edge2" class="edge">
<title>Read&#45;&gt;Over</title>
<path fill="none" stroke="black" d="M219.39,-113.92C207.15,-105.61 189.22,-93.44 175.01,-83.78"/>
<polygon fill="black" stroke="black" points="176.96,-80.88 166.72,-78.16 173.03,-86.67 176.96,-80.88"/>
</g>
<!-- Read2 -->
<g id="node3" class="node">
<title>Read2</title>
<polygon fill="none" stroke="black" points="321.5,-78 189.5,-78 189.5,-57 321.5,-57 321.5,-78"/>
<text text-anchor="middle" x="255.5" y="-64.4" font-family="Times,serif" font-size="12.00">Read: Counter.2.png</text>
</g>
<!-- Over2 -->
<g id="node5" class="node">
<title>Over2</title>
<polygon fill="none" stroke="black" points="222.5,-21 184.5,-21 184.5,0 222.5,0 222.5,-21"/>
<text text-anchor="middle" x="203.5" y="-7.4" font-family="Times,serif" font-size="12.00">Over</text>
</g>
<!-- Read2&#45;&gt;Over2 -->
<g id="edge4" class="edge">
<title>Read2&#45;&gt;Over2</title>
<path fill="none" stroke="black" d="M246.44,-56.92C239.08,-49.13 228.5,-37.94 219.68,-28.62"/>
<polygon fill="black" stroke="black" points="222.22,-26.2 212.8,-21.34 217.13,-31.01 222.22,-26.2"/>
</g>
<!-- Over&#45;&gt;Over2 -->
<g id="edge3" class="edge">
<title>Over&#45;&gt;Over2</title>
<path fill="none" stroke="black" d="M161.38,-56.92C168.54,-49.21 178.78,-38.16 187.37,-28.9"/>
<polygon fill="black" stroke="black" points="190.14,-31.05 194.37,-21.34 185.01,-26.29 190.14,-31.05"/>
</g>
</g>
</svg>
