<?xml version="1.0" encoding="UTF-8" standalone="no"?>
<!DOCTYPE svg PUBLIC "-//W3C//DTD SVG 1.1//EN"
 "http://www.w3.org/Graphics/SVG/1.1/DTD/svg11.dtd">
<!-- Generated by graphviz version 2.43.0 (0)
 -->
<!-- Title: CompositeTracks Pages: 1 -->
<svg width="373pt" height="143pt"
 viewBox="0.00 0.00 372.50 143.00" xmlns="http://www.w3.org/2000/svg" xmlns:xlink="http://www.w3.org/1999/xlink">
<g id="graph0" class="graph" transform="scale(1 1) rotate(0) translate(4 139)">
<title>CompositeTracks</title>
<polygon fill="white" stroke="transparent" points="-4,4 -4,-139 368.5,-139 368.5,4 -4,4"/>
<!-- FillOp -->
<g id="node1" class="node">
<title>FillOp</title>
<polygon fill="none" stroke="black" points="162,-135 0,-135 0,-114 162,-114 162,-135"/>
<text text-anchor="middle" x="81" y="-121.4" font-family="Times,serif" font-size="12.00">FillOp: Background color</text>
</g>
<!-- OverOp -->
<g id="node4" class="node">
<title>OverOp</title>
<polygon fill="none" stroke="black" points="197.5,-78 142.5,-78 142.5,-57 197.5,-57 197.5,-78"/>
<text text-anchor="middle" x="170" y="-64.4" font-family="Times,serif" font-size="12.00">OverOp</text>
</g>
<!-- FillOp&#45;&gt;OverOp -->
<g id="edge1" class="edge">
<title>FillOp&#45;&gt;OverOp</title>
<path fill="none" stroke="black" d="M96.5,-113.92C110.07,-105.53 130.02,-93.21 145.71,-83.51"/>
<polygon fill="black" stroke="black" points="147.71,-86.39 154.38,-78.16 144.03,-80.43 147.71,-86.39"/>
</g>
<!-- ReadOp -->
<g id="node2" class="node">
<title>ReadOp</title>
<polygon fill="none" stroke="black" points="337.5,-135 180.5,-135 180.5,-114 337.5,-114 337.5,-135"/>
<text text-anchor="middle" x="259" y="-121.4" font-family="Times,serif" font-size="12.00">ReadOp: Color_Blue.png</text>
</g>
<!-- ReadOp&#45;&gt;OverOp -->
<g id="edge2" class="edge">
<title>ReadOp&#45;&gt;OverOp</title>
<path fill="none" stroke="black" d="M243.5,-113.92C229.93,-105.53 209.98,-93.21 194.29,-83.51"/>
<polygon fill="black" stroke="black" points="195.97,-80.43 185.62,-78.16 192.29,-86.39 195.97,-80.43"/>
</g>
<!-- ReadOp2 -->
<g id="node3" class="node">
<title>ReadOp2</title>
<polygon fill="none" stroke="black" points="364.5,-78 215.5,-78 215.5,-57 364.5,-57 364.5,-78"/>
<text text-anchor="middle" x="290" y="-64.4" font-family="Times,serif" font-size="12.00">ReadOp: Counter.2.png</text>
</g>
<!-- OverOp2 -->
<g id="node5" class="node">
<title>OverOp2</title>
<polygon fill="none" stroke="black" points="257.5,-21 202.5,-21 202.5,0 257.5,0 257.5,-21"/>
<text text-anchor="middle" x="230" y="-7.4" font-family="Times,serif" font-size="12.00">OverOp</text>
</g>
<!-- ReadOp2&#45;&gt;OverOp2 -->
<g id="edge4" class="edge">
<title>ReadOp2&#45;&gt;OverOp2</title>
<path fill="none" stroke="black" d="M279.55,-56.92C270.97,-49.05 258.6,-37.72 248.37,-28.34"/>
<polygon fill="black" stroke="black" points="250.47,-25.52 240.74,-21.34 245.74,-30.68 250.47,-25.52"/>
</g>
<!-- OverOp&#45;&gt;OverOp2 -->
<g id="edge3" class="edge">
<title>OverOp&#45;&gt;OverOp2</title>
<path fill="none" stroke="black" d="M180.45,-56.92C189.03,-49.05 201.4,-37.72 211.63,-28.34"/>
<polygon fill="black" stroke="black" points="214.26,-30.68 219.26,-21.34 209.53,-25.52 214.26,-30.68"/>
</g>
</g>
</svg>
