<?xml version="1.0" encoding="UTF-8" standalone="no"?>
<!DOCTYPE svg PUBLIC "-//W3C//DTD SVG 1.1//EN"
 "http://www.w3.org/Graphics/SVG/1.1/DTD/svg11.dtd">
<!-- Generated by graphviz version 2.43.0 (0)
 -->
<!-- Title: CompositeTracks Pages: 1 -->
<svg width="393pt" height="188pt"
 viewBox="0.00 0.00 392.50 188.00" xmlns="http://www.w3.org/2000/svg" xmlns:xlink="http://www.w3.org/1999/xlink">
<g id="graph0" class="graph" transform="scale(1 1) rotate(0) translate(4 184)">
<title>CompositeTracks</title>
<polygon fill="white" stroke="transparent" points="-4,4 -4,-184 388.5,-184 388.5,4 -4,4"/>
<!-- FillOp -->
<g id="node1" class="node">
<title>FillOp</title>
<polygon fill="none" stroke="black" points="170,-180 0,-180 0,-144 170,-144 170,-180"/>
<text text-anchor="middle" x="85" y="-158.9" font-family="Times,serif" font-size="12.00">FillOp: Background color</text>
</g>
<!-- OverOp -->
<g id="node4" class="node">
<title>OverOp</title>
<polygon fill="none" stroke="black" points="209.5,-108 146.5,-108 146.5,-72 209.5,-72 209.5,-108"/>
<text text-anchor="middle" x="178" y="-86.9" font-family="Times,serif" font-size="12.00">OverOp</text>
</g>
<!-- FillOp&#45;&gt;OverOp -->
<g id="edge1" class="edge">
<title>FillOp&#45;&gt;OverOp</title>
<path fill="none" stroke="black" d="M107.99,-143.7C119.81,-134.8 134.39,-123.82 147.18,-114.2"/>
<polygon fill="black" stroke="black" points="149.39,-116.91 155.28,-108.1 145.18,-111.32 149.39,-116.91"/>
</g>
<!-- ReadOp -->
<g id="node2" class="node">
<title>ReadOp</title>
<polygon fill="none" stroke="black" points="353.5,-180 188.5,-180 188.5,-144 353.5,-144 353.5,-180"/>
<text text-anchor="middle" x="271" y="-158.9" font-family="Times,serif" font-size="12.00">ReadOp: Color_Blue.png</text>
</g>
<!-- ReadOp&#45;&gt;OverOp -->
<g id="edge2" class="edge">
<title>ReadOp&#45;&gt;OverOp</title>
<path fill="none" stroke="black" d="M248.01,-143.7C236.19,-134.8 221.61,-123.82 208.82,-114.2"/>
<polygon fill="black" stroke="black" points="210.82,-111.32 200.72,-108.1 206.61,-116.91 210.82,-111.32"/>
</g>
<!-- ReadOp2 -->
<g id="node3" class="node">
<title>ReadOp2</title>
<polygon fill="none" stroke="black" points="384.5,-108 227.5,-108 227.5,-72 384.5,-72 384.5,-108"/>
<text text-anchor="middle" x="306" y="-86.9" font-family="Times,serif" font-size="12.00">ReadOp: Counter.2.png</text>
</g>
<!-- OverOp2 -->
<g id="node5" class="node">
<title>OverOp2</title>
<polygon fill="none" stroke="black" points="273.5,-36 210.5,-36 210.5,0 273.5,0 273.5,-36"/>
<text text-anchor="middle" x="242" y="-14.9" font-family="Times,serif" font-size="12.00">OverOp</text>
</g>
<!-- ReadOp2&#45;&gt;OverOp2 -->
<g id="edge4" class="edge">
<title>ReadOp2&#45;&gt;OverOp2</title>
<path fill="none" stroke="black" d="M290.18,-71.7C282.43,-63.22 272.96,-52.86 264.48,-43.58"/>
<polygon fill="black" stroke="black" points="266.97,-41.12 257.64,-36.1 261.8,-45.85 266.97,-41.12"/>
</g>
<!-- OverOp&#45;&gt;OverOp2 -->
<g id="edge3" class="edge">
<title>OverOp&#45;&gt;OverOp2</title>
<path fill="none" stroke="black" d="M193.82,-71.7C201.57,-63.22 211.04,-52.86 219.52,-43.58"/>
<polygon fill="black" stroke="black" points="222.2,-45.85 226.36,-36.1 217.03,-41.12 222.2,-45.85"/>
</g>
</g>
</svg>
