<?xml version="1.0" encoding="UTF-8" standalone="no"?>
<!DOCTYPE svg PUBLIC "-//W3C//DTD SVG 1.1//EN"
 "http://www.w3.org/Graphics/SVG/1.1/DTD/svg11.dtd">
<!-- Generated by graphviz version 2.43.0 (0)
 -->
<!-- Title: CompositeTracks Pages: 1 -->
<svg width="277pt" height="143pt"
 viewBox="0.00 0.00 277.00 143.00" xmlns="http://www.w3.org/2000/svg" xmlns:xlink="http://www.w3.org/1999/xlink">
<g id="graph0" class="graph" transform="scale(1 1) rotate(0) translate(4 139)">
<title>CompositeTracks</title>
<polygon fill="white" stroke="transparent" points="-4,4 -4,-139 273,-139 273,4 -4,4"/>
<!-- Comp_1599726180416 -->
<g id="node1" class="node">
<title>Comp_1599726180416</title>
<polygon fill="none" stroke="black" points="141,-21 97,-21 97,0 141,0 141,-21"/>
<text text-anchor="middle" x="119" y="-7.4" font-family="Times,serif" font-size="12.00">Comp</text>
</g>
<!-- SequenceRead_1597776614800 -->
<g id="node2" class="node">
<title>SequenceRead_1597776614800</title>
<polygon fill="none" stroke="black" points="132,-78 0,-78 0,-57 132,-57 132,-78"/>
<text text-anchor="middle" x="66" y="-64.4" font-family="Times,serif" font-size="12.00">Read: Counter.0.png</text>
</g>
<!-- SequenceRead_1597776614800&#45;&gt;Comp_1599726180416 -->
<g id="edge1" class="edge">
<title>SequenceRead_1597776614800&#45;&gt;Comp_1599726180416</title>
<path fill="none" stroke="black" d="M75.23,-56.92C82.74,-49.13 93.52,-37.94 102.5,-28.62"/>
<polygon fill="black" stroke="black" points="105.1,-30.97 109.52,-21.34 100.06,-26.11 105.1,-30.97"/>
</g>
<!-- Comp_1599726179168 -->
<g id="node3" class="node">
<title>Comp_1599726179168</title>
<polygon fill="none" stroke="black" points="194,-78 150,-78 150,-57 194,-57 194,-78"/>
<text text-anchor="middle" x="172" y="-64.4" font-family="Times,serif" font-size="12.00">Comp</text>
</g>
<!-- Comp_1599726179168&#45;&gt;Comp_1599726180416 -->
<g id="edge2" class="edge">
<title>Comp_1599726179168&#45;&gt;Comp_1599726180416</title>
<path fill="none" stroke="black" d="M162.77,-56.92C155.26,-49.13 144.48,-37.94 135.5,-28.62"/>
<polygon fill="black" stroke="black" points="137.94,-26.11 128.48,-21.34 132.9,-30.97 137.94,-26.11"/>
</g>
<!-- Fill_1599713589184 -->
<g id="node4" class="node">
<title>Fill_1599713589184</title>
<polygon fill="none" stroke="black" points="163,-135 75,-135 75,-114 163,-114 163,-135"/>
<text text-anchor="middle" x="119" y="-121.4" font-family="Times,serif" font-size="12.00">Fill: 0, 0, 1, 1</text>
</g>
<!-- Fill_1599713589184&#45;&gt;Comp_1599726179168 -->
<g id="edge3" class="edge">
<title>Fill_1599713589184&#45;&gt;Comp_1599726179168</title>
<path fill="none" stroke="black" d="M128.23,-113.92C135.74,-106.13 146.52,-94.94 155.5,-85.62"/>
<polygon fill="black" stroke="black" points="158.1,-87.97 162.52,-78.34 153.06,-83.11 158.1,-87.97"/>
</g>
<!-- Fill_1599713588960 -->
<g id="node5" class="node">
<title>Fill_1599713588960</title>
<polygon fill="none" stroke="black" points="269,-135 181,-135 181,-114 269,-114 269,-135"/>
<text text-anchor="middle" x="225" y="-121.4" font-family="Times,serif" font-size="12.00">Fill: 0, 0, 0, 1</text>
</g>
<!-- Fill_1599713588960&#45;&gt;Comp_1599726179168 -->
<g id="edge4" class="edge">
<title>Fill_1599713588960&#45;&gt;Comp_1599726179168</title>
<path fill="none" stroke="black" d="M215.77,-113.92C208.26,-106.13 197.48,-94.94 188.5,-85.62"/>
<polygon fill="black" stroke="black" points="190.94,-83.11 181.48,-78.34 185.9,-87.97 190.94,-83.11"/>
</g>
</g>
</svg>
