<?xml version="1.0" encoding="UTF-8" standalone="no"?>
<!DOCTYPE svg PUBLIC "-//W3C//DTD SVG 1.1//EN"
 "http://www.w3.org/Graphics/SVG/1.1/DTD/svg11.dtd">
<!-- Generated by graphviz version 2.43.0 (0)
 -->
<!-- Title: MultipleEffects Pages: 1 -->
<svg width="194pt" height="314pt"
 viewBox="0.00 0.00 194.00 314.00" xmlns="http://www.w3.org/2000/svg" xmlns:xlink="http://www.w3.org/1999/xlink">
<g id="graph0" class="graph" transform="scale(1 1) rotate(0) translate(4 310)">
<title>MultipleEffects</title>
<polygon fill="white" stroke="transparent" points="-4,4 -4,-310 190,-310 190,4 -4,4"/>
<!-- Pow_2560849241088 -->
<g id="node1" class="node">
<title>Pow_2560849241088</title>
<polygon fill="none" stroke="black" points="116,-21 82,-21 82,0 116,0 116,-21"/>
<text text-anchor="middle" x="99" y="-7.4" font-family="Times,serif" font-size="12.00">Pow</text>
</g>
<!-- Comp_2560849246288 -->
<g id="node2" class="node">
<title>Comp_2560849246288</title>
<polygon fill="none" stroke="black" points="121,-78 77,-78 77,-57 121,-57 121,-78"/>
<text text-anchor="middle" x="99" y="-64.4" font-family="Times,serif" font-size="12.00">Comp</text>
</g>
<!-- Comp_2560849246288&#45;&gt;Pow_2560849241088 -->
<g id="edge1" class="edge">
<title>Comp_2560849246288&#45;&gt;Pow_2560849241088</title>
<path fill="none" stroke="black" d="M99,-56.92C99,-49.91 99,-40.14 99,-31.47"/>
<polygon fill="black" stroke="black" points="102.5,-31.34 99,-21.34 95.5,-31.34 102.5,-31.34"/>
</g>
<!-- Invert_2560932117488 -->
<g id="node3" class="node">
<title>Invert_2560932117488</title>
<polygon fill="none" stroke="black" points="79.5,-135 34.5,-135 34.5,-114 79.5,-114 79.5,-135"/>
<text text-anchor="middle" x="57" y="-121.4" font-family="Times,serif" font-size="12.00">Invert</text>
</g>
<!-- Invert_2560932117488&#45;&gt;Comp_2560849246288 -->
<g id="edge2" class="edge">
<title>Invert_2560932117488&#45;&gt;Comp_2560849246288</title>
<path fill="none" stroke="black" d="M64.32,-113.92C70.09,-106.36 78.3,-95.61 85.28,-86.46"/>
<polygon fill="black" stroke="black" points="88.2,-88.41 91.49,-78.34 82.63,-84.16 88.2,-88.41"/>
</g>
<!-- Blur_2560849246080 -->
<g id="node4" class="node">
<title>Blur_2560849246080</title>
<polygon fill="none" stroke="black" points="74.5,-192 39.5,-192 39.5,-171 74.5,-171 74.5,-192"/>
<text text-anchor="middle" x="57" y="-178.4" font-family="Times,serif" font-size="12.00">Blur</text>
</g>
<!-- Blur_2560849246080&#45;&gt;Invert_2560932117488 -->
<g id="edge3" class="edge">
<title>Blur_2560849246080&#45;&gt;Invert_2560932117488</title>
<path fill="none" stroke="black" d="M57,-170.92C57,-163.91 57,-154.14 57,-145.47"/>
<polygon fill="black" stroke="black" points="60.5,-145.34 57,-135.34 53.5,-145.34 60.5,-145.34"/>
</g>
<!-- Flip_2560932119216 -->
<g id="node5" class="node">
<title>Flip_2560932119216</title>
<polygon fill="none" stroke="black" points="73,-249 41,-249 41,-228 73,-228 73,-249"/>
<text text-anchor="middle" x="57" y="-235.4" font-family="Times,serif" font-size="12.00">Flip</text>
</g>
<!-- Flip_2560932119216&#45;&gt;Blur_2560849246080 -->
<g id="edge4" class="edge">
<title>Flip_2560932119216&#45;&gt;Blur_2560849246080</title>
<path fill="none" stroke="black" d="M57,-227.92C57,-220.91 57,-211.14 57,-202.47"/>
<polygon fill="black" stroke="black" points="60.5,-202.34 57,-192.34 53.5,-202.34 60.5,-202.34"/>
</g>
<!-- Read_2560840968656 -->
<g id="node6" class="node">
<title>Read_2560840968656</title>
<polygon fill="none" stroke="black" points="114,-306 0,-306 0,-285 114,-285 114,-306"/>
<text text-anchor="middle" x="57" y="-292.4" font-family="Times,serif" font-size="12.00">Read: Charlie.jpg</text>
</g>
<!-- Read_2560840968656&#45;&gt;Flip_2560932119216 -->
<g id="edge5" class="edge">
<title>Read_2560840968656&#45;&gt;Flip_2560932119216</title>
<path fill="none" stroke="black" d="M57,-284.92C57,-277.91 57,-268.14 57,-259.47"/>
<polygon fill="black" stroke="black" points="60.5,-259.34 57,-249.34 53.5,-259.34 60.5,-259.34"/>
</g>
<!-- Fill_2560840970288 -->
<g id="node7" class="node">
<title>Fill_2560840970288</title>
<polygon fill="none" stroke="black" points="186,-135 98,-135 98,-114 186,-114 186,-135"/>
<text text-anchor="middle" x="142" y="-121.4" font-family="Times,serif" font-size="12.00">Fill: 0, 0, 0, 1</text>
</g>
<!-- Fill_2560840970288&#45;&gt;Comp_2560849246288 -->
<g id="edge6" class="edge">
<title>Fill_2560840970288&#45;&gt;Comp_2560849246288</title>
<path fill="none" stroke="black" d="M134.51,-113.92C128.6,-106.36 120.19,-95.61 113.04,-86.46"/>
<polygon fill="black" stroke="black" points="115.61,-84.06 106.69,-78.34 110.1,-88.37 115.61,-84.06"/>
</g>
</g>
</svg>
