<?xml version="1.0" encoding="UTF-8" standalone="no"?>
<!DOCTYPE svg PUBLIC "-//W3C//DTD SVG 1.1//EN"
 "http://www.w3.org/Graphics/SVG/1.1/DTD/svg11.dtd">
<!-- Generated by graphviz version 2.43.0 (0)
 -->
<!-- Title: Transition Pages: 1 -->
<svg width="274pt" height="143pt"
 viewBox="0.00 0.00 274.00 143.00" xmlns="http://www.w3.org/2000/svg" xmlns:xlink="http://www.w3.org/1999/xlink">
<g id="graph0" class="graph" transform="scale(1 1) rotate(0) translate(4 139)">
<title>Transition</title>
<polygon fill="white" stroke="transparent" points="-4,4 -4,-139 270,-139 270,4 -4,4"/>
<!-- Comp_2524697000576 -->
<g id="node1" class="node">
<title>Comp_2524697000576</title>
<polygon fill="none" stroke="black" points="198,-21 154,-21 154,0 198,0 198,-21"/>
<text text-anchor="middle" x="176" y="-7.4" font-family="Times,serif" font-size="12.00">Comp</text>
</g>
<!-- Dissolve_2524878971696 -->
<g id="node2" class="node">
<title>Dissolve_2524878971696</title>
<polygon fill="none" stroke="black" points="159.5,-78 100.5,-78 100.5,-57 159.5,-57 159.5,-78"/>
<text text-anchor="middle" x="130" y="-64.4" font-family="Times,serif" font-size="12.00">Dissolve</text>
</g>
<!-- Dissolve_2524878971696&#45;&gt;Comp_2524697000576 -->
<g id="edge1" class="edge">
<title>Dissolve_2524878971696&#45;&gt;Comp_2524697000576</title>
<path fill="none" stroke="black" d="M138.01,-56.92C144.4,-49.29 153.51,-38.39 161.21,-29.18"/>
<polygon fill="black" stroke="black" points="164.04,-31.26 167.77,-21.34 158.67,-26.77 164.04,-31.26"/>
</g>
<!-- SequenceRead_2524878990960 -->
<g id="node3" class="node">
<title>SequenceRead_2524878990960</title>
<polygon fill="none" stroke="black" points="132,-135 0,-135 0,-114 132,-114 132,-135"/>
<text text-anchor="middle" x="66" y="-121.4" font-family="Times,serif" font-size="12.00">Read: Counter.2.png</text>
</g>
<!-- SequenceRead_2524878990960&#45;&gt;Dissolve_2524878971696 -->
<g id="edge2" class="edge">
<title>SequenceRead_2524878990960&#45;&gt;Dissolve_2524878971696</title>
<path fill="none" stroke="black" d="M77.15,-113.92C86.39,-105.97 99.76,-94.49 110.73,-85.06"/>
<polygon fill="black" stroke="black" points="113.25,-87.51 118.55,-78.34 108.68,-82.2 113.25,-87.51"/>
</g>
<!-- Fill_2524829994752 -->
<g id="node4" class="node">
<title>Fill_2524829994752</title>
<polygon fill="none" stroke="black" points="238,-135 150,-135 150,-114 238,-114 238,-135"/>
<text text-anchor="middle" x="194" y="-121.4" font-family="Times,serif" font-size="12.00">Fill: 0, 0, 1, 1</text>
</g>
<!-- Fill_2524829994752&#45;&gt;Dissolve_2524878971696 -->
<g id="edge3" class="edge">
<title>Fill_2524829994752&#45;&gt;Dissolve_2524878971696</title>
<path fill="none" stroke="black" d="M182.85,-113.92C173.61,-105.97 160.24,-94.49 149.27,-85.06"/>
<polygon fill="black" stroke="black" points="151.32,-82.2 141.45,-78.34 146.75,-87.51 151.32,-82.2"/>
</g>
<!-- Fill_2524878970176 -->
<g id="node5" class="node">
<title>Fill_2524878970176</title>
<polygon fill="none" stroke="black" points="266,-78 178,-78 178,-57 266,-57 266,-78"/>
<text text-anchor="middle" x="222" y="-64.4" font-family="Times,serif" font-size="12.00">Fill: 0, 0, 0, 1</text>
</g>
<!-- Fill_2524878970176&#45;&gt;Comp_2524697000576 -->
<g id="edge4" class="edge">
<title>Fill_2524878970176&#45;&gt;Comp_2524697000576</title>
<path fill="none" stroke="black" d="M213.99,-56.92C207.6,-49.29 198.49,-38.39 190.79,-29.18"/>
<polygon fill="black" stroke="black" points="193.33,-26.77 184.23,-21.34 187.96,-31.26 193.33,-26.77"/>
</g>
</g>
</svg>
