<?xml version="1.0" encoding="UTF-8" standalone="no"?>
<!DOCTYPE svg PUBLIC "-//W3C//DTD SVG 1.1//EN"
 "http://www.w3.org/Graphics/SVG/1.1/DTD/svg11.dtd">
<!-- Generated by graphviz version 2.43.0 (0)
 -->
<!-- Title: CompositeTracks Pages: 1 -->
<svg width="416pt" height="260pt"
 viewBox="0.00 0.00 415.50 260.00" xmlns="http://www.w3.org/2000/svg" xmlns:xlink="http://www.w3.org/1999/xlink">
<g id="graph0" class="graph" transform="scale(1 1) rotate(0) translate(4 256)">
<title>CompositeTracks</title>
<polygon fill="white" stroke="transparent" points="-4,4 -4,-256 411.5,-256 411.5,4 -4,4"/>
<!-- FillOp -->
<g id="node1" class="node">
<title>FillOp</title>
<polygon fill="none" stroke="black" points="170,-108 0,-108 0,-72 170,-72 170,-108"/>
<text text-anchor="middle" x="85" y="-86.9" font-family="Times,serif" font-size="12.00">FillOp: Background color</text>
</g>
<!-- OverOp -->
<g id="node7" class="node">
<title>OverOp</title>
<polygon fill="none" stroke="black" points="191.5,-36 128.5,-36 128.5,0 191.5,0 191.5,-36"/>
<text text-anchor="middle" x="160" y="-14.9" font-family="Times,serif" font-size="12.00">OverOp</text>
</g>
<!-- FillOp&#45;&gt;OverOp -->
<g id="edge1" class="edge">
<title>FillOp&#45;&gt;OverOp</title>
<path fill="none" stroke="black" d="M103.54,-71.7C112.8,-63.05 124.16,-52.45 134.26,-43.03"/>
<polygon fill="black" stroke="black" points="136.75,-45.49 141.67,-36.1 131.98,-40.37 136.75,-45.49"/>
</g>
<!-- ReadOp -->
<g id="node2" class="node">
<title>ReadOp</title>
<polygon fill="none" stroke="black" points="224.5,-252 67.5,-252 67.5,-216 224.5,-216 224.5,-252"/>
<text text-anchor="middle" x="146" y="-230.9" font-family="Times,serif" font-size="12.00">ReadOp: Counter.2.png</text>
</g>
<!-- InvertOp -->
<g id="node4" class="node">
<title>InvertOp</title>
<polygon fill="none" stroke="black" points="204,-180 134,-180 134,-144 204,-144 204,-180"/>
<text text-anchor="middle" x="169" y="-158.9" font-family="Times,serif" font-size="12.00">InvertOp</text>
</g>
<!-- ReadOp&#45;&gt;InvertOp -->
<g id="edge2" class="edge">
<title>ReadOp&#45;&gt;InvertOp</title>
<path fill="none" stroke="black" d="M151.69,-215.7C154.25,-207.9 157.33,-198.51 160.18,-189.83"/>
<polygon fill="black" stroke="black" points="163.58,-190.7 163.38,-180.1 156.93,-188.51 163.58,-190.7"/>
</g>
<!-- ReadOp2 -->
<g id="node3" class="node">
<title>ReadOp2</title>
<polygon fill="none" stroke="black" points="407.5,-252 242.5,-252 242.5,-216 407.5,-216 407.5,-252"/>
<text text-anchor="middle" x="325" y="-230.9" font-family="Times,serif" font-size="12.00">ReadOp: Color_Blue.png</text>
</g>
<!-- InvertOp2 -->
<g id="node5" class="node">
<title>InvertOp2</title>
<polygon fill="none" stroke="black" points="337,-180 267,-180 267,-144 337,-144 337,-180"/>
<text text-anchor="middle" x="302" y="-158.9" font-family="Times,serif" font-size="12.00">InvertOp</text>
</g>
<!-- ReadOp2&#45;&gt;InvertOp2 -->
<g id="edge4" class="edge">
<title>ReadOp2&#45;&gt;InvertOp2</title>
<path fill="none" stroke="black" d="M319.31,-215.7C316.75,-207.9 313.67,-198.51 310.82,-189.83"/>
<polygon fill="black" stroke="black" points="314.07,-188.51 307.62,-180.1 307.42,-190.7 314.07,-188.51"/>
</g>
<!-- TransitionOp -->
<g id="node6" class="node">
<title>TransitionOp</title>
<polygon fill="none" stroke="black" points="284,-108 188,-108 188,-72 284,-72 284,-108"/>
<text text-anchor="middle" x="236" y="-86.9" font-family="Times,serif" font-size="12.00">TransitionOp</text>
</g>
<!-- InvertOp&#45;&gt;TransitionOp -->
<g id="edge3" class="edge">
<title>InvertOp&#45;&gt;TransitionOp</title>
<path fill="none" stroke="black" d="M185.56,-143.7C193.68,-135.22 203.59,-124.86 212.47,-115.58"/>
<polygon fill="black" stroke="black" points="215.24,-117.75 219.63,-108.1 210.19,-112.91 215.24,-117.75"/>
</g>
<!-- InvertOp2&#45;&gt;TransitionOp -->
<g id="edge5" class="edge">
<title>InvertOp2&#45;&gt;TransitionOp</title>
<path fill="none" stroke="black" d="M285.69,-143.7C277.69,-135.22 267.93,-124.86 259.18,-115.58"/>
<polygon fill="black" stroke="black" points="261.53,-112.98 252.13,-108.1 256.44,-117.78 261.53,-112.98"/>
</g>
<!-- TransitionOp&#45;&gt;OverOp -->
<g id="edge6" class="edge">
<title>TransitionOp&#45;&gt;OverOp</title>
<path fill="none" stroke="black" d="M217.21,-71.7C207.83,-63.05 196.32,-52.45 186.09,-43.03"/>
<polygon fill="black" stroke="black" points="188.3,-40.3 178.57,-36.1 183.55,-45.45 188.3,-40.3"/>
</g>
</g>
</svg>
