<?xml version="1.0" encoding="UTF-8" standalone="no"?>
<!DOCTYPE svg PUBLIC "-//W3C//DTD SVG 1.1//EN"
 "http://www.w3.org/Graphics/SVG/1.1/DTD/svg11.dtd">
<!-- Generated by graphviz version 2.43.0 (0)
 -->
<!-- Title: CompositeTracks Pages: 1 -->
<svg width="354pt" height="143pt"
 viewBox="0.00 0.00 353.50 143.00" xmlns="http://www.w3.org/2000/svg" xmlns:xlink="http://www.w3.org/1999/xlink">
<g id="graph0" class="graph" transform="scale(1 1) rotate(0) translate(4 139)">
<title>CompositeTracks</title>
<polygon fill="white" stroke="transparent" points="-4,4 -4,-139 349.5,-139 349.5,4 -4,4"/>
<!-- Fill -->
<g id="node1" class="node">
<title>Fill</title>
<polygon fill="none" stroke="black" points="145,-78 0,-78 0,-57 145,-57 145,-78"/>
<text text-anchor="middle" x="72.5" y="-64.4" font-family="Times,serif" font-size="12.00">Fill: Background color</text>
</g>
<!-- Over -->
<g id="node5" class="node">
<title>Over</title>
<polygon fill="none" stroke="black" points="154.5,-21 116.5,-21 116.5,0 154.5,0 154.5,-21"/>
<text text-anchor="middle" x="135.5" y="-7.4" font-family="Times,serif" font-size="12.00">Over</text>
</g>
<!-- Fill&#45;&gt;Over -->
<g id="edge1" class="edge">
<title>Fill&#45;&gt;Over</title>
<path fill="none" stroke="black" d="M83.47,-56.92C92.58,-48.97 105.73,-37.49 116.53,-28.06"/>
<polygon fill="black" stroke="black" points="119,-30.55 124.23,-21.34 114.39,-25.28 119,-30.55"/>
</g>
<!-- Read -->
<g id="node2" class="node">
<title>Read</title>
<polygon fill="none" stroke="black" points="187.5,-135 55.5,-135 55.5,-114 187.5,-114 187.5,-135"/>
<text text-anchor="middle" x="121.5" y="-121.4" font-family="Times,serif" font-size="12.00">Read: Counter.2.png</text>
</g>
<!-- Transition -->
<g id="node4" class="node">
<title>Transition</title>
<polygon fill="none" stroke="black" points="234,-78 163,-78 163,-57 234,-57 234,-78"/>
<text text-anchor="middle" x="198.5" y="-64.4" font-family="Times,serif" font-size="12.00">Transition</text>
</g>
<!-- Read&#45;&gt;Transition -->
<g id="edge2" class="edge">
<title>Read&#45;&gt;Transition</title>
<path fill="none" stroke="black" d="M134.91,-113.92C146.44,-105.69 163.27,-93.67 176.72,-84.06"/>
<polygon fill="black" stroke="black" points="178.88,-86.82 184.98,-78.16 174.81,-81.12 178.88,-86.82"/>
</g>
<!-- Read2 -->
<g id="node3" class="node">
<title>Read2</title>
<polygon fill="none" stroke="black" points="345.5,-135 205.5,-135 205.5,-114 345.5,-114 345.5,-135"/>
<text text-anchor="middle" x="275.5" y="-121.4" font-family="Times,serif" font-size="12.00">Read: Color_Blue.png</text>
</g>
<!-- Read2&#45;&gt;Transition -->
<g id="edge3" class="edge">
<title>Read2&#45;&gt;Transition</title>
<path fill="none" stroke="black" d="M262.09,-113.92C250.56,-105.69 233.73,-93.67 220.28,-84.06"/>
<polygon fill="black" stroke="black" points="222.19,-81.12 212.02,-78.16 218.12,-86.82 222.19,-81.12"/>
</g>
<!-- Transition&#45;&gt;Over -->
<g id="edge4" class="edge">
<title>Transition&#45;&gt;Over</title>
<path fill="none" stroke="black" d="M187.53,-56.92C178.42,-48.97 165.27,-37.49 154.47,-28.06"/>
<polygon fill="black" stroke="black" points="156.61,-25.28 146.77,-21.34 152,-30.55 156.61,-25.28"/>
</g>
</g>
</svg>
