<?xml version="1.0" encoding="UTF-8" standalone="no"?>
<!DOCTYPE svg PUBLIC "-//W3C//DTD SVG 1.1//EN"
 "http://www.w3.org/Graphics/SVG/1.1/DTD/svg11.dtd">
<!-- Generated by graphviz version 2.43.0 (0)
 -->
<!-- Title: Transition2 Pages: 1 -->
<svg width="273pt" height="200pt"
 viewBox="0.00 0.00 273.00 200.00" xmlns="http://www.w3.org/2000/svg" xmlns:xlink="http://www.w3.org/1999/xlink">
<g id="graph0" class="graph" transform="scale(1 1) rotate(0) translate(4 196)">
<title>Transition2</title>
<polygon fill="white" stroke="transparent" points="-4,4 -4,-196 269,-196 269,4 -4,4"/>
<!-- Comp_2198512534800 -->
<g id="node1" class="node">
<title>Comp_2198512534800</title>
<polygon fill="none" stroke="black" points="197,-21 153,-21 153,0 197,0 197,-21"/>
<text text-anchor="middle" x="175" y="-7.4" font-family="Times,serif" font-size="12.00">Comp</text>
</g>
<!-- Dissolve_2198694435648 -->
<g id="node2" class="node">
<title>Dissolve_2198694435648</title>
<polygon fill="none" stroke="black" points="158.5,-78 99.5,-78 99.5,-57 158.5,-57 158.5,-78"/>
<text text-anchor="middle" x="129" y="-64.4" font-family="Times,serif" font-size="12.00">Dissolve</text>
</g>
<!-- Dissolve_2198694435648&#45;&gt;Comp_2198512534800 -->
<g id="edge1" class="edge">
<title>Dissolve_2198694435648&#45;&gt;Comp_2198512534800</title>
<path fill="none" stroke="black" d="M137.01,-56.92C143.4,-49.29 152.51,-38.39 160.21,-29.18"/>
<polygon fill="black" stroke="black" points="163.04,-31.26 166.77,-21.34 157.67,-26.77 163.04,-31.26"/>
</g>
<!-- Invert_2198612175136 -->
<g id="node3" class="node">
<title>Invert_2198612175136</title>
<polygon fill="none" stroke="black" points="120.5,-135 75.5,-135 75.5,-114 120.5,-114 120.5,-135"/>
<text text-anchor="middle" x="98" y="-121.4" font-family="Times,serif" font-size="12.00">Invert</text>
</g>
<!-- Invert_2198612175136&#45;&gt;Dissolve_2198694435648 -->
<g id="edge2" class="edge">
<title>Invert_2198612175136&#45;&gt;Dissolve_2198694435648</title>
<path fill="none" stroke="black" d="M103.4,-113.92C107.53,-106.6 113.35,-96.27 118.4,-87.31"/>
<polygon fill="black" stroke="black" points="121.59,-88.77 123.45,-78.34 115.49,-85.33 121.59,-88.77"/>
</g>
<!-- SequenceRead_2198694381632 -->
<g id="node4" class="node">
<title>SequenceRead_2198694381632</title>
<polygon fill="none" stroke="black" points="132,-192 0,-192 0,-171 132,-171 132,-192"/>
<text text-anchor="middle" x="66" y="-178.4" font-family="Times,serif" font-size="12.00">Read: Counter.2.png</text>
</g>
<!-- SequenceRead_2198694381632&#45;&gt;Invert_2198612175136 -->
<g id="edge3" class="edge">
<title>SequenceRead_2198694381632&#45;&gt;Invert_2198612175136</title>
<path fill="none" stroke="black" d="M71.57,-170.92C75.88,-163.52 81.97,-153.05 87.22,-144.03"/>
<polygon fill="black" stroke="black" points="90.27,-145.74 92.27,-135.34 84.22,-142.22 90.27,-145.74"/>
</g>
<!-- Invert_2198612185696 -->
<g id="node5" class="node">
<title>Invert_2198612185696</title>
<polygon fill="none" stroke="black" points="199.5,-135 154.5,-135 154.5,-114 199.5,-114 199.5,-135"/>
<text text-anchor="middle" x="177" y="-121.4" font-family="Times,serif" font-size="12.00">Invert</text>
</g>
<!-- Invert_2198612185696&#45;&gt;Dissolve_2198694435648 -->
<g id="edge4" class="edge">
<title>Invert_2198612185696&#45;&gt;Dissolve_2198694435648</title>
<path fill="none" stroke="black" d="M168.64,-113.92C161.91,-106.21 152.27,-95.16 144.18,-85.9"/>
<polygon fill="black" stroke="black" points="146.8,-83.57 137.59,-78.34 141.53,-88.18 146.8,-83.57"/>
</g>
<!-- Fill_2198512578320 -->
<g id="node6" class="node">
<title>Fill_2198512578320</title>
<polygon fill="none" stroke="black" points="238,-192 150,-192 150,-171 238,-171 238,-192"/>
<text text-anchor="middle" x="194" y="-178.4" font-family="Times,serif" font-size="12.00">Fill: 0, 0, 1, 1</text>
</g>
<!-- Fill_2198512578320&#45;&gt;Invert_2198612185696 -->
<g id="edge5" class="edge">
<title>Fill_2198512578320&#45;&gt;Invert_2198612185696</title>
<path fill="none" stroke="black" d="M191.04,-170.92C188.85,-163.83 185.79,-153.93 183.08,-145.18"/>
<polygon fill="black" stroke="black" points="186.34,-143.86 180.04,-135.34 179.65,-145.93 186.34,-143.86"/>
</g>
<!-- Fill_2198545780528 -->
<g id="node7" class="node">
<title>Fill_2198545780528</title>
<polygon fill="none" stroke="black" points="265,-78 177,-78 177,-57 265,-57 265,-78"/>
<text text-anchor="middle" x="221" y="-64.4" font-family="Times,serif" font-size="12.00">Fill: 0, 0, 0, 1</text>
</g>
<!-- Fill_2198545780528&#45;&gt;Comp_2198512534800 -->
<g id="edge6" class="edge">
<title>Fill_2198545780528&#45;&gt;Comp_2198512534800</title>
<path fill="none" stroke="black" d="M212.99,-56.92C206.6,-49.29 197.49,-38.39 189.79,-29.18"/>
<polygon fill="black" stroke="black" points="192.33,-26.77 183.23,-21.34 186.96,-31.26 192.33,-26.77"/>
</g>
</g>
</svg>
