<?xml version="1.0" encoding="UTF-8" standalone="no"?>
<!DOCTYPE svg PUBLIC "-//W3C//DTD SVG 1.1//EN"
 "http://www.w3.org/Graphics/SVG/1.1/DTD/svg11.dtd">
<!-- Generated by graphviz version 2.43.0 (0)
 -->
<!-- Title: CompositeTracks Pages: 1 -->
<svg width="396pt" height="200pt"
 viewBox="0.00 0.00 395.50 200.00" xmlns="http://www.w3.org/2000/svg" xmlns:xlink="http://www.w3.org/1999/xlink">
<g id="graph0" class="graph" transform="scale(1 1) rotate(0) translate(4 196)">
<title>CompositeTracks</title>
<polygon fill="white" stroke="transparent" points="-4,4 -4,-196 391.5,-196 391.5,4 -4,4"/>
<!-- FillOp -->
<g id="node1" class="node">
<title>FillOp</title>
<polygon fill="none" stroke="black" points="162,-78 0,-78 0,-57 162,-57 162,-78"/>
<text text-anchor="middle" x="81" y="-64.4" font-family="Times,serif" font-size="12.00">FillOp: Background color</text>
</g>
<!-- OverOp -->
<g id="node7" class="node">
<title>OverOp</title>
<polygon fill="none" stroke="black" points="179.5,-21 124.5,-21 124.5,0 179.5,0 179.5,-21"/>
<text text-anchor="middle" x="152" y="-7.4" font-family="Times,serif" font-size="12.00">OverOp</text>
</g>
<!-- FillOp&#45;&gt;OverOp -->
<g id="edge1" class="edge">
<title>FillOp&#45;&gt;OverOp</title>
<path fill="none" stroke="black" d="M93.37,-56.92C103.83,-48.82 119.03,-37.04 131.33,-27.51"/>
<polygon fill="black" stroke="black" points="133.53,-30.23 139.3,-21.34 129.25,-24.7 133.53,-30.23"/>
</g>
<!-- ReadOp -->
<g id="node2" class="node">
<title>ReadOp</title>
<polygon fill="none" stroke="black" points="212.5,-192 63.5,-192 63.5,-171 212.5,-171 212.5,-192"/>
<text text-anchor="middle" x="138" y="-178.4" font-family="Times,serif" font-size="12.00">ReadOp: Counter.2.png</text>
</g>
<!-- InvertOp -->
<g id="node4" class="node">
<title>InvertOp</title>
<polygon fill="none" stroke="black" points="192,-135 130,-135 130,-114 192,-114 192,-135"/>
<text text-anchor="middle" x="161" y="-121.4" font-family="Times,serif" font-size="12.00">InvertOp</text>
</g>
<!-- ReadOp&#45;&gt;InvertOp -->
<g id="edge2" class="edge">
<title>ReadOp&#45;&gt;InvertOp</title>
<path fill="none" stroke="black" d="M142.01,-170.92C145.04,-163.67 149.29,-153.49 153.01,-144.6"/>
<polygon fill="black" stroke="black" points="156.26,-145.92 156.88,-135.34 149.8,-143.22 156.26,-145.92"/>
</g>
<!-- ReadOp2 -->
<g id="node3" class="node">
<title>ReadOp2</title>
<polygon fill="none" stroke="black" points="387.5,-192 230.5,-192 230.5,-171 387.5,-171 387.5,-192"/>
<text text-anchor="middle" x="309" y="-178.4" font-family="Times,serif" font-size="12.00">ReadOp: Color_Blue.png</text>
</g>
<!-- InvertOp2 -->
<g id="node5" class="node">
<title>InvertOp2</title>
<polygon fill="none" stroke="black" points="317,-135 255,-135 255,-114 317,-114 317,-135"/>
<text text-anchor="middle" x="286" y="-121.4" font-family="Times,serif" font-size="12.00">InvertOp</text>
</g>
<!-- ReadOp2&#45;&gt;InvertOp2 -->
<g id="edge4" class="edge">
<title>ReadOp2&#45;&gt;InvertOp2</title>
<path fill="none" stroke="black" d="M304.99,-170.92C301.96,-163.67 297.71,-153.49 293.99,-144.6"/>
<polygon fill="black" stroke="black" points="297.2,-143.22 290.12,-135.34 290.74,-145.92 297.2,-143.22"/>
</g>
<!-- TransitionOp -->
<g id="node6" class="node">
<title>TransitionOp</title>
<polygon fill="none" stroke="black" points="268,-78 180,-78 180,-57 268,-57 268,-78"/>
<text text-anchor="middle" x="224" y="-64.4" font-family="Times,serif" font-size="12.00">TransitionOp</text>
</g>
<!-- InvertOp&#45;&gt;TransitionOp -->
<g id="edge3" class="edge">
<title>InvertOp&#45;&gt;TransitionOp</title>
<path fill="none" stroke="black" d="M171.97,-113.92C181.08,-105.97 194.23,-94.49 205.03,-85.06"/>
<polygon fill="black" stroke="black" points="207.5,-87.55 212.73,-78.34 202.89,-82.28 207.5,-87.55"/>
</g>
<!-- InvertOp2&#45;&gt;TransitionOp -->
<g id="edge5" class="edge">
<title>InvertOp2&#45;&gt;TransitionOp</title>
<path fill="none" stroke="black" d="M275.2,-113.92C266.24,-105.97 253.3,-94.49 242.67,-85.06"/>
<polygon fill="black" stroke="black" points="244.9,-82.36 235.09,-78.34 240.25,-87.6 244.9,-82.36"/>
</g>
<!-- TransitionOp&#45;&gt;OverOp -->
<g id="edge6" class="edge">
<title>TransitionOp&#45;&gt;OverOp</title>
<path fill="none" stroke="black" d="M211.46,-56.92C200.85,-48.82 185.43,-37.04 172.96,-27.51"/>
<polygon fill="black" stroke="black" points="174.95,-24.63 164.88,-21.34 170.7,-30.19 174.95,-24.63"/>
</g>
</g>
</svg>
