<?xml version="1.0" encoding="UTF-8" standalone="no"?>
<!DOCTYPE svg PUBLIC "-//W3C//DTD SVG 1.1//EN"
 "http://www.w3.org/Graphics/SVG/1.1/DTD/svg11.dtd">
<!-- Generated by graphviz version 2.43.0 (0)
 -->
<!-- Title: CompositeTracks Pages: 1 -->
<svg width="354pt" height="200pt"
 viewBox="0.00 0.00 353.50 200.00" xmlns="http://www.w3.org/2000/svg" xmlns:xlink="http://www.w3.org/1999/xlink">
<g id="graph0" class="graph" transform="scale(1 1) rotate(0) translate(4 196)">
<title>CompositeTracks</title>
<polygon fill="white" stroke="transparent" points="-4,4 -4,-196 349.5,-196 349.5,4 -4,4"/>
<!-- Fill -->
<g id="node1" class="node">
<title>Fill</title>
<polygon fill="none" stroke="black" points="145,-78 0,-78 0,-57 145,-57 145,-78"/>
<text text-anchor="middle" x="72.5" y="-64.4" font-family="Times,serif" font-size="12.00">Fill: Background color</text>
</g>
<!-- Over -->
<g id="node7" class="node">
<title>Over</title>
<polygon fill="none" stroke="black" points="154.5,-21 116.5,-21 116.5,0 154.5,0 154.5,-21"/>
<text text-anchor="middle" x="135.5" y="-7.4" font-family="Times,serif" font-size="12.00">Over</text>
</g>
<!-- Fill&#45;&gt;Over -->
<g id="edge1" class="edge">
<title>Fill&#45;&gt;Over</title>
<path fill="none" stroke="black" d="M83.47,-56.92C92.58,-48.97 105.73,-37.49 116.53,-28.06"/>
<polygon fill="black" stroke="black" points="119,-30.55 124.23,-21.34 114.39,-25.28 119,-30.55"/>
</g>
<!-- Read -->
<g id="node2" class="node">
<title>Read</title>
<polygon fill="none" stroke="black" points="187.5,-192 55.5,-192 55.5,-171 187.5,-171 187.5,-192"/>
<text text-anchor="middle" x="121.5" y="-178.4" font-family="Times,serif" font-size="12.00">Read: Counter.2.png</text>
</g>
<!-- Invert -->
<g id="node4" class="node">
<title>Invert</title>
<polygon fill="none" stroke="black" points="167,-135 122,-135 122,-114 167,-114 167,-135"/>
<text text-anchor="middle" x="144.5" y="-121.4" font-family="Times,serif" font-size="12.00">Invert</text>
</g>
<!-- Read&#45;&gt;Invert -->
<g id="edge2" class="edge">
<title>Read&#45;&gt;Invert</title>
<path fill="none" stroke="black" d="M125.51,-170.92C128.54,-163.67 132.79,-153.49 136.51,-144.6"/>
<polygon fill="black" stroke="black" points="139.76,-145.92 140.38,-135.34 133.3,-143.22 139.76,-145.92"/>
</g>
<!-- Read2 -->
<g id="node3" class="node">
<title>Read2</title>
<polygon fill="none" stroke="black" points="345.5,-192 205.5,-192 205.5,-171 345.5,-171 345.5,-192"/>
<text text-anchor="middle" x="275.5" y="-178.4" font-family="Times,serif" font-size="12.00">Read: Color_Blue.png</text>
</g>
<!-- Invert2 -->
<g id="node5" class="node">
<title>Invert2</title>
<polygon fill="none" stroke="black" points="275,-135 230,-135 230,-114 275,-114 275,-135"/>
<text text-anchor="middle" x="252.5" y="-121.4" font-family="Times,serif" font-size="12.00">Invert</text>
</g>
<!-- Read2&#45;&gt;Invert2 -->
<g id="edge4" class="edge">
<title>Read2&#45;&gt;Invert2</title>
<path fill="none" stroke="black" d="M271.49,-170.92C268.46,-163.67 264.21,-153.49 260.49,-144.6"/>
<polygon fill="black" stroke="black" points="263.7,-143.22 256.62,-135.34 257.24,-145.92 263.7,-143.22"/>
</g>
<!-- Transition -->
<g id="node6" class="node">
<title>Transition</title>
<polygon fill="none" stroke="black" points="234,-78 163,-78 163,-57 234,-57 234,-78"/>
<text text-anchor="middle" x="198.5" y="-64.4" font-family="Times,serif" font-size="12.00">Transition</text>
</g>
<!-- Invert&#45;&gt;Transition -->
<g id="edge3" class="edge">
<title>Invert&#45;&gt;Transition</title>
<path fill="none" stroke="black" d="M153.91,-113.92C161.55,-106.13 172.54,-94.94 181.69,-85.62"/>
<polygon fill="black" stroke="black" points="184.33,-87.93 188.84,-78.34 179.33,-83.02 184.33,-87.93"/>
</g>
<!-- Invert2&#45;&gt;Transition -->
<g id="edge5" class="edge">
<title>Invert2&#45;&gt;Transition</title>
<path fill="none" stroke="black" d="M243.09,-113.92C235.45,-106.13 224.46,-94.94 215.31,-85.62"/>
<polygon fill="black" stroke="black" points="217.67,-83.02 208.16,-78.34 212.67,-87.93 217.67,-83.02"/>
</g>
<!-- Transition&#45;&gt;Over -->
<g id="edge6" class="edge">
<title>Transition&#45;&gt;Over</title>
<path fill="none" stroke="black" d="M187.53,-56.92C178.42,-48.97 165.27,-37.49 154.47,-28.06"/>
<polygon fill="black" stroke="black" points="156.61,-25.28 146.77,-21.34 152,-30.55 156.61,-25.28"/>
</g>
</g>
</svg>
